<mxfile host="www.draw.io" modified="2020-02-19T16:41:38.179Z" agent="Mozilla/5.0 (Macintosh; Intel Mac OS X 10_15_2) AppleWebKit/537.36 (KHTML, like Gecko) Chrome/79.0.3945.88 Safari/537.36" etag="vYLT07kWhLwYa-2c0UCW" version="12.7.2" type="github">
  <diagram name="Page-1" id="13e1069c-82ec-6db2-03f1-153e76fe0fe0">
    <mxGraphModel dx="1295" dy="753" grid="1" gridSize="10" guides="1" tooltips="1" connect="1" arrows="1" fold="1" page="1" pageScale="1" pageWidth="1100" pageHeight="850" background="#ffffff" math="0" shadow="0">
      <root>
        <mxCell id="0" />
        <mxCell id="1" parent="0" />
        <mxCell id="7baba1c4bc27f4b0-2" value="平台" style="shape=umlLifeline;perimeter=lifelinePerimeter;whiteSpace=wrap;html=1;container=1;collapsible=0;recursiveResize=0;outlineConnect=0;rounded=1;shadow=0;comic=0;labelBackgroundColor=none;strokeWidth=1;fontFamily=Verdana;fontSize=12;align=center;" parent="1" vertex="1">
          <mxGeometry x="240" y="80" width="100" height="1230" as="geometry" />
        </mxCell>
        <mxCell id="7baba1c4bc27f4b0-10" value="" style="html=1;points=[];perimeter=orthogonalPerimeter;rounded=0;shadow=0;comic=0;labelBackgroundColor=none;strokeWidth=1;fontFamily=Verdana;fontSize=12;align=center;" parent="7baba1c4bc27f4b0-2" vertex="1">
          <mxGeometry x="45" y="100" width="10" height="90" as="geometry" />
        </mxCell>
        <mxCell id="Y-yH2sZbLb9cI7O1GI6r-6" value="" style="html=1;points=[];perimeter=orthogonalPerimeter;rounded=0;shadow=0;comic=0;labelBackgroundColor=none;strokeWidth=1;fontFamily=Verdana;fontSize=12;align=center;" vertex="1" parent="7baba1c4bc27f4b0-2">
          <mxGeometry x="45" y="220" width="10" height="120" as="geometry" />
        </mxCell>
        <mxCell id="Y-yH2sZbLb9cI7O1GI6r-46" value="" style="html=1;points=[];perimeter=orthogonalPerimeter;rounded=0;shadow=0;comic=0;labelBackgroundColor=none;strokeWidth=1;fontFamily=Verdana;fontSize=12;align=center;" vertex="1" parent="7baba1c4bc27f4b0-2">
          <mxGeometry x="45" y="610" width="10" height="130" as="geometry" />
        </mxCell>
        <mxCell id="Y-yH2sZbLb9cI7O1GI6r-64" value="" style="html=1;points=[];perimeter=orthogonalPerimeter;rounded=0;shadow=0;comic=0;labelBackgroundColor=none;strokeWidth=1;fontFamily=Verdana;fontSize=12;align=center;" vertex="1" parent="7baba1c4bc27f4b0-2">
          <mxGeometry x="45" y="800" width="10" height="80" as="geometry" />
        </mxCell>
        <mxCell id="Y-yH2sZbLb9cI7O1GI6r-73" value="" style="html=1;points=[];perimeter=orthogonalPerimeter;rounded=0;shadow=0;comic=0;labelBackgroundColor=none;strokeWidth=1;fontFamily=Verdana;fontSize=12;align=center;" vertex="1" parent="7baba1c4bc27f4b0-2">
          <mxGeometry x="45" y="930" width="10" height="80" as="geometry" />
        </mxCell>
        <mxCell id="Y-yH2sZbLb9cI7O1GI6r-85" value="" style="html=1;points=[];perimeter=orthogonalPerimeter;rounded=0;shadow=0;comic=0;labelBackgroundColor=none;strokeWidth=1;fontFamily=Verdana;fontSize=12;align=center;" vertex="1" parent="7baba1c4bc27f4b0-2">
          <mxGeometry x="45" y="1060" width="10" height="170" as="geometry" />
        </mxCell>
        <mxCell id="7baba1c4bc27f4b0-3" value="策略服务" style="shape=umlLifeline;perimeter=lifelinePerimeter;whiteSpace=wrap;html=1;container=1;collapsible=0;recursiveResize=0;outlineConnect=0;rounded=1;shadow=0;comic=0;labelBackgroundColor=none;strokeWidth=1;fontFamily=Verdana;fontSize=12;align=center;" parent="1" vertex="1">
          <mxGeometry x="400" y="80" width="100" height="1320" as="geometry" />
        </mxCell>
        <mxCell id="7baba1c4bc27f4b0-13" value="" style="html=1;points=[];perimeter=orthogonalPerimeter;rounded=0;shadow=0;comic=0;labelBackgroundColor=none;strokeWidth=1;fontFamily=Verdana;fontSize=12;align=center;" parent="7baba1c4bc27f4b0-3" vertex="1">
          <mxGeometry x="45" y="120" width="10" height="60" as="geometry" />
        </mxCell>
        <mxCell id="Y-yH2sZbLb9cI7O1GI6r-8" value="" style="html=1;points=[];perimeter=orthogonalPerimeter;rounded=0;shadow=0;comic=0;labelBackgroundColor=none;strokeWidth=1;fontFamily=Verdana;fontSize=12;align=center;" vertex="1" parent="7baba1c4bc27f4b0-3">
          <mxGeometry x="45" y="235" width="10" height="95" as="geometry" />
        </mxCell>
        <mxCell id="Y-yH2sZbLb9cI7O1GI6r-49" value="" style="html=1;points=[];perimeter=orthogonalPerimeter;rounded=0;shadow=0;comic=0;labelBackgroundColor=none;strokeWidth=1;fontFamily=Verdana;fontSize=12;align=center;" vertex="1" parent="7baba1c4bc27f4b0-3">
          <mxGeometry x="45" y="620" width="10" height="60" as="geometry" />
        </mxCell>
        <mxCell id="Y-yH2sZbLb9cI7O1GI6r-79" value="" style="html=1;points=[];perimeter=orthogonalPerimeter;rounded=0;shadow=0;comic=0;labelBackgroundColor=none;strokeWidth=1;fontFamily=Verdana;fontSize=12;align=center;" vertex="1" parent="7baba1c4bc27f4b0-3">
          <mxGeometry x="45" y="810" width="10" height="60" as="geometry" />
        </mxCell>
        <mxCell id="Y-yH2sZbLb9cI7O1GI6r-92" value="" style="html=1;points=[];perimeter=orthogonalPerimeter;rounded=0;shadow=0;comic=0;labelBackgroundColor=none;strokeWidth=1;fontFamily=Verdana;fontSize=12;align=center;" vertex="1" parent="7baba1c4bc27f4b0-3">
          <mxGeometry x="45" y="1070" width="10" height="60" as="geometry" />
        </mxCell>
        <mxCell id="7baba1c4bc27f4b0-4" value="文件系统" style="shape=umlLifeline;perimeter=lifelinePerimeter;whiteSpace=wrap;html=1;container=1;collapsible=0;recursiveResize=0;outlineConnect=0;rounded=1;shadow=0;comic=0;labelBackgroundColor=none;strokeWidth=1;fontFamily=Verdana;fontSize=12;align=center;" parent="1" vertex="1">
          <mxGeometry x="540" y="80" width="100" height="1320" as="geometry" />
        </mxCell>
        <mxCell id="Y-yH2sZbLb9cI7O1GI6r-12" value="" style="html=1;points=[];perimeter=orthogonalPerimeter;rounded=0;shadow=0;comic=0;labelBackgroundColor=none;strokeWidth=1;fontFamily=Verdana;fontSize=12;align=center;" vertex="1" parent="7baba1c4bc27f4b0-4">
          <mxGeometry x="45" y="250" width="10" height="60" as="geometry" />
        </mxCell>
        <mxCell id="Y-yH2sZbLb9cI7O1GI6r-54" value="" style="html=1;points=[];perimeter=orthogonalPerimeter;rounded=0;shadow=0;comic=0;labelBackgroundColor=none;strokeWidth=1;fontFamily=Verdana;fontSize=12;align=center;" vertex="1" parent="7baba1c4bc27f4b0-4">
          <mxGeometry x="45" y="620" width="10" height="50" as="geometry" />
        </mxCell>
        <mxCell id="Y-yH2sZbLb9cI7O1GI6r-81" value="" style="html=1;points=[];perimeter=orthogonalPerimeter;rounded=0;shadow=0;comic=0;labelBackgroundColor=none;strokeWidth=1;fontFamily=Verdana;fontSize=12;align=center;" vertex="1" parent="7baba1c4bc27f4b0-4">
          <mxGeometry x="45" y="810" width="10" height="60" as="geometry" />
        </mxCell>
        <mxCell id="Y-yH2sZbLb9cI7O1GI6r-97" value="" style="html=1;points=[];perimeter=orthogonalPerimeter;rounded=0;shadow=0;comic=0;labelBackgroundColor=none;strokeWidth=1;fontFamily=Verdana;fontSize=12;align=center;" vertex="1" parent="7baba1c4bc27f4b0-4">
          <mxGeometry x="45" y="1070" width="10" height="60" as="geometry" />
        </mxCell>
        <mxCell id="7baba1c4bc27f4b0-8" value="用户" style="shape=umlLifeline;perimeter=lifelinePerimeter;whiteSpace=wrap;html=1;container=1;collapsible=0;recursiveResize=0;outlineConnect=0;rounded=1;shadow=0;comic=0;labelBackgroundColor=none;strokeWidth=1;fontFamily=Verdana;fontSize=12;align=center;" parent="1" vertex="1">
          <mxGeometry x="100" y="80" width="100" height="1320" as="geometry" />
        </mxCell>
        <mxCell id="7baba1c4bc27f4b0-9" value="" style="html=1;points=[];perimeter=orthogonalPerimeter;rounded=0;shadow=0;comic=0;labelBackgroundColor=none;strokeWidth=1;fontFamily=Verdana;fontSize=12;align=center;" parent="7baba1c4bc27f4b0-8" vertex="1">
          <mxGeometry x="45" y="100" width="10" height="100" as="geometry" />
        </mxCell>
        <mxCell id="Y-yH2sZbLb9cI7O1GI6r-20" value="" style="html=1;points=[];perimeter=orthogonalPerimeter;rounded=0;shadow=0;comic=0;labelBackgroundColor=none;strokeWidth=1;fontFamily=Verdana;fontSize=12;align=center;" vertex="1" parent="7baba1c4bc27f4b0-8">
          <mxGeometry x="45" y="220" width="10" height="140" as="geometry" />
        </mxCell>
        <mxCell id="Y-yH2sZbLb9cI7O1GI6r-23" value="" style="html=1;points=[];perimeter=orthogonalPerimeter;rounded=0;shadow=0;comic=0;labelBackgroundColor=none;strokeWidth=1;fontFamily=Verdana;fontSize=12;align=center;" vertex="1" parent="7baba1c4bc27f4b0-8">
          <mxGeometry x="45" y="390" width="10" height="190" as="geometry" />
        </mxCell>
        <mxCell id="Y-yH2sZbLb9cI7O1GI6r-45" value="" style="html=1;points=[];perimeter=orthogonalPerimeter;rounded=0;shadow=0;comic=0;labelBackgroundColor=none;strokeWidth=1;fontFamily=Verdana;fontSize=12;align=center;" vertex="1" parent="7baba1c4bc27f4b0-8">
          <mxGeometry x="45" y="610" width="10" height="160" as="geometry" />
        </mxCell>
        <mxCell id="Y-yH2sZbLb9cI7O1GI6r-63" value="" style="html=1;points=[];perimeter=orthogonalPerimeter;rounded=0;shadow=0;comic=0;labelBackgroundColor=none;strokeWidth=1;fontFamily=Verdana;fontSize=12;align=center;" vertex="1" parent="7baba1c4bc27f4b0-8">
          <mxGeometry x="45" y="800" width="10" height="100" as="geometry" />
        </mxCell>
        <mxCell id="Y-yH2sZbLb9cI7O1GI6r-71" value="" style="html=1;points=[];perimeter=orthogonalPerimeter;rounded=0;shadow=0;comic=0;labelBackgroundColor=none;strokeWidth=1;fontFamily=Verdana;fontSize=12;align=center;" vertex="1" parent="7baba1c4bc27f4b0-8">
          <mxGeometry x="45" y="930" width="10" height="100" as="geometry" />
        </mxCell>
        <mxCell id="Y-yH2sZbLb9cI7O1GI6r-84" value="" style="html=1;points=[];perimeter=orthogonalPerimeter;rounded=0;shadow=0;comic=0;labelBackgroundColor=none;strokeWidth=1;fontFamily=Verdana;fontSize=12;align=center;" vertex="1" parent="7baba1c4bc27f4b0-8">
          <mxGeometry x="45" y="1060" width="10" height="180" as="geometry" />
        </mxCell>
        <mxCell id="7baba1c4bc27f4b0-17" value="创建策略文件&lt;br&gt;(根据用户名为根目录创建，&lt;br&gt;一个策略一个文件夹)" style="html=1;verticalAlign=bottom;endArrow=block;labelBackgroundColor=none;fontFamily=Verdana;fontSize=12;edgeStyle=elbowEdgeStyle;elbow=vertical;" parent="1" source="7baba1c4bc27f4b0-13" edge="1">
          <mxGeometry relative="1" as="geometry">
            <mxPoint x="510" y="220" as="sourcePoint" />
            <Array as="points">
              <mxPoint x="460" y="220" />
            </Array>
            <mxPoint x="585" y="220" as="targetPoint" />
          </mxGeometry>
        </mxCell>
        <mxCell id="7baba1c4bc27f4b0-11" value="创建策略" style="html=1;verticalAlign=bottom;endArrow=block;entryX=0;entryY=0;labelBackgroundColor=none;fontFamily=Verdana;fontSize=12;edgeStyle=elbowEdgeStyle;elbow=vertical;" parent="1" source="7baba1c4bc27f4b0-9" target="7baba1c4bc27f4b0-10" edge="1">
          <mxGeometry relative="1" as="geometry">
            <mxPoint x="220" y="190" as="sourcePoint" />
          </mxGeometry>
        </mxCell>
        <mxCell id="7baba1c4bc27f4b0-14" value="创建策略&lt;br&gt;(策略名，参数列表，用户名)" style="html=1;verticalAlign=bottom;endArrow=block;entryX=0;entryY=0;labelBackgroundColor=none;fontFamily=Verdana;fontSize=12;edgeStyle=elbowEdgeStyle;elbow=vertical;" parent="1" source="7baba1c4bc27f4b0-10" target="7baba1c4bc27f4b0-13" edge="1">
          <mxGeometry relative="1" as="geometry">
            <mxPoint x="370" y="200" as="sourcePoint" />
          </mxGeometry>
        </mxCell>
        <mxCell id="Y-yH2sZbLb9cI7O1GI6r-1" style="edgeStyle=orthogonalEdgeStyle;rounded=0;orthogonalLoop=1;jettySize=auto;html=1;" edge="1" parent="1" source="7baba1c4bc27f4b0-13" target="7baba1c4bc27f4b0-2">
          <mxGeometry relative="1" as="geometry">
            <Array as="points">
              <mxPoint x="420" y="250" />
              <mxPoint x="420" y="250" />
            </Array>
          </mxGeometry>
        </mxCell>
        <mxCell id="Y-yH2sZbLb9cI7O1GI6r-2" value="创建成功" style="text;html=1;align=center;verticalAlign=middle;resizable=0;points=[];labelBackgroundColor=#ffffff;" vertex="1" connectable="0" parent="Y-yH2sZbLb9cI7O1GI6r-1">
          <mxGeometry x="-0.1125" relative="1" as="geometry">
            <mxPoint as="offset" />
          </mxGeometry>
        </mxCell>
        <mxCell id="Y-yH2sZbLb9cI7O1GI6r-3" style="edgeStyle=orthogonalEdgeStyle;rounded=0;orthogonalLoop=1;jettySize=auto;html=1;entryX=1.2;entryY=0.8;entryDx=0;entryDy=0;entryPerimeter=0;" edge="1" parent="1" source="7baba1c4bc27f4b0-10" target="7baba1c4bc27f4b0-9">
          <mxGeometry relative="1" as="geometry">
            <Array as="points">
              <mxPoint x="190" y="260" />
              <mxPoint x="190" y="260" />
            </Array>
          </mxGeometry>
        </mxCell>
        <mxCell id="Y-yH2sZbLb9cI7O1GI6r-4" value="创建成功" style="text;html=1;align=center;verticalAlign=middle;resizable=0;points=[];labelBackgroundColor=#ffffff;" vertex="1" connectable="0" parent="Y-yH2sZbLb9cI7O1GI6r-3">
          <mxGeometry x="-0.0258" y="1" relative="1" as="geometry">
            <mxPoint as="offset" />
          </mxGeometry>
        </mxCell>
        <mxCell id="Y-yH2sZbLb9cI7O1GI6r-9" value="请求文件" style="edgeStyle=orthogonalEdgeStyle;rounded=0;orthogonalLoop=1;jettySize=auto;html=1;entryX=-0.3;entryY=0.033;entryDx=0;entryDy=0;entryPerimeter=0;" edge="1" parent="1" source="Y-yH2sZbLb9cI7O1GI6r-6" target="Y-yH2sZbLb9cI7O1GI6r-8">
          <mxGeometry relative="1" as="geometry">
            <Array as="points">
              <mxPoint x="330" y="317" />
              <mxPoint x="330" y="317" />
            </Array>
          </mxGeometry>
        </mxCell>
        <mxCell id="Y-yH2sZbLb9cI7O1GI6r-13" style="edgeStyle=orthogonalEdgeStyle;rounded=0;orthogonalLoop=1;jettySize=auto;html=1;entryX=-0.4;entryY=0.183;entryDx=0;entryDy=0;entryPerimeter=0;" edge="1" parent="1" source="Y-yH2sZbLb9cI7O1GI6r-8" target="Y-yH2sZbLb9cI7O1GI6r-12">
          <mxGeometry relative="1" as="geometry">
            <Array as="points">
              <mxPoint x="490" y="341" />
              <mxPoint x="490" y="341" />
            </Array>
          </mxGeometry>
        </mxCell>
        <mxCell id="Y-yH2sZbLb9cI7O1GI6r-14" value="找到文件夹并zip" style="text;html=1;align=center;verticalAlign=middle;resizable=0;points=[];labelBackgroundColor=#ffffff;" vertex="1" connectable="0" parent="Y-yH2sZbLb9cI7O1GI6r-13">
          <mxGeometry y="2" relative="1" as="geometry">
            <mxPoint as="offset" />
          </mxGeometry>
        </mxCell>
        <mxCell id="Y-yH2sZbLb9cI7O1GI6r-15" style="edgeStyle=orthogonalEdgeStyle;rounded=0;orthogonalLoop=1;jettySize=auto;html=1;entryX=1.1;entryY=0.684;entryDx=0;entryDy=0;entryPerimeter=0;exitX=-0.2;exitY=0.833;exitDx=0;exitDy=0;exitPerimeter=0;" edge="1" parent="1" source="Y-yH2sZbLb9cI7O1GI6r-12" target="Y-yH2sZbLb9cI7O1GI6r-8">
          <mxGeometry relative="1" as="geometry">
            <Array as="points" />
          </mxGeometry>
        </mxCell>
        <mxCell id="Y-yH2sZbLb9cI7O1GI6r-16" value="文件夹zip" style="text;html=1;align=center;verticalAlign=middle;resizable=0;points=[];labelBackgroundColor=#ffffff;" vertex="1" connectable="0" parent="Y-yH2sZbLb9cI7O1GI6r-15">
          <mxGeometry x="-0.0236" y="1" relative="1" as="geometry">
            <mxPoint as="offset" />
          </mxGeometry>
        </mxCell>
        <mxCell id="Y-yH2sZbLb9cI7O1GI6r-17" value="文件夹zip" style="edgeStyle=orthogonalEdgeStyle;rounded=0;orthogonalLoop=1;jettySize=auto;html=1;entryX=1.3;entryY=0.817;entryDx=0;entryDy=0;entryPerimeter=0;exitX=-0.3;exitY=0.863;exitDx=0;exitDy=0;exitPerimeter=0;" edge="1" parent="1" source="Y-yH2sZbLb9cI7O1GI6r-8" target="Y-yH2sZbLb9cI7O1GI6r-6">
          <mxGeometry relative="1" as="geometry" />
        </mxCell>
        <mxCell id="Y-yH2sZbLb9cI7O1GI6r-21" value="请求下载" style="edgeStyle=orthogonalEdgeStyle;rounded=0;orthogonalLoop=1;jettySize=auto;html=1;entryX=-0.5;entryY=0.1;entryDx=0;entryDy=0;entryPerimeter=0;" edge="1" parent="1" source="Y-yH2sZbLb9cI7O1GI6r-20" target="Y-yH2sZbLb9cI7O1GI6r-6">
          <mxGeometry relative="1" as="geometry">
            <Array as="points">
              <mxPoint x="190" y="312" />
              <mxPoint x="190" y="312" />
            </Array>
          </mxGeometry>
        </mxCell>
        <mxCell id="Y-yH2sZbLb9cI7O1GI6r-22" value="下载到本地" style="edgeStyle=orthogonalEdgeStyle;rounded=0;orthogonalLoop=1;jettySize=auto;html=1;entryX=1.3;entryY=0.829;entryDx=0;entryDy=0;entryPerimeter=0;" edge="1" parent="1" source="Y-yH2sZbLb9cI7O1GI6r-6" target="Y-yH2sZbLb9cI7O1GI6r-20">
          <mxGeometry relative="1" as="geometry">
            <Array as="points">
              <mxPoint x="250" y="416" />
              <mxPoint x="250" y="416" />
            </Array>
          </mxGeometry>
        </mxCell>
        <mxCell id="Y-yH2sZbLb9cI7O1GI6r-25" value="行情服务" style="shape=umlLifeline;perimeter=lifelinePerimeter;whiteSpace=wrap;html=1;container=1;collapsible=0;recursiveResize=0;outlineConnect=0;rounded=1;shadow=0;comic=0;labelBackgroundColor=none;strokeWidth=1;fontFamily=Verdana;fontSize=12;align=center;" vertex="1" parent="1">
          <mxGeometry x="680" y="80" width="100" height="1320" as="geometry" />
        </mxCell>
        <mxCell id="Y-yH2sZbLb9cI7O1GI6r-27" value="" style="html=1;points=[];perimeter=orthogonalPerimeter;rounded=0;shadow=0;comic=0;labelBackgroundColor=none;strokeWidth=1;fontFamily=Verdana;fontSize=12;align=center;" vertex="1" parent="Y-yH2sZbLb9cI7O1GI6r-25">
          <mxGeometry x="45" y="380" width="10" height="60" as="geometry" />
        </mxCell>
        <mxCell id="Y-yH2sZbLb9cI7O1GI6r-42" value="" style="html=1;points=[];perimeter=orthogonalPerimeter;rounded=0;shadow=0;comic=0;labelBackgroundColor=none;strokeWidth=1;fontFamily=Verdana;fontSize=12;align=center;" vertex="1" parent="Y-yH2sZbLb9cI7O1GI6r-25">
          <mxGeometry x="45" y="470" width="10" height="60" as="geometry" />
        </mxCell>
        <mxCell id="Y-yH2sZbLb9cI7O1GI6r-28" value="创建" style="text;html=1;strokeColor=none;fillColor=none;align=center;verticalAlign=middle;whiteSpace=wrap;rounded=0;" vertex="1" parent="1">
          <mxGeometry x="60" y="210" width="40" height="20" as="geometry" />
        </mxCell>
        <mxCell id="Y-yH2sZbLb9cI7O1GI6r-31" value="下载策略" style="text;html=1;strokeColor=none;fillColor=none;align=center;verticalAlign=middle;whiteSpace=wrap;rounded=0;" vertex="1" parent="1">
          <mxGeometry x="50" y="350" width="60" height="20" as="geometry" />
        </mxCell>
        <mxCell id="Y-yH2sZbLb9cI7O1GI6r-32" value="本地调试" style="text;html=1;strokeColor=none;fillColor=none;align=center;verticalAlign=middle;whiteSpace=wrap;rounded=0;" vertex="1" parent="1">
          <mxGeometry x="50" y="530" width="60" height="20" as="geometry" />
        </mxCell>
        <mxCell id="Y-yH2sZbLb9cI7O1GI6r-33" style="edgeStyle=orthogonalEdgeStyle;rounded=0;orthogonalLoop=1;jettySize=auto;html=1;entryX=0;entryY=0.079;entryDx=0;entryDy=0;entryPerimeter=0;exitX=1.4;exitY=0.029;exitDx=0;exitDy=0;exitPerimeter=0;" edge="1" parent="1" source="Y-yH2sZbLb9cI7O1GI6r-23" target="Y-yH2sZbLb9cI7O1GI6r-27">
          <mxGeometry relative="1" as="geometry">
            <Array as="points">
              <mxPoint x="440" y="474" />
              <mxPoint x="440" y="471" />
            </Array>
          </mxGeometry>
        </mxCell>
        <mxCell id="Y-yH2sZbLb9cI7O1GI6r-34" value="请求行情数据" style="text;html=1;align=center;verticalAlign=middle;resizable=0;points=[];labelBackgroundColor=#ffffff;" vertex="1" connectable="0" parent="Y-yH2sZbLb9cI7O1GI6r-33">
          <mxGeometry x="-0.0896" relative="1" as="geometry">
            <mxPoint as="offset" />
          </mxGeometry>
        </mxCell>
        <mxCell id="Y-yH2sZbLb9cI7O1GI6r-35" style="edgeStyle=orthogonalEdgeStyle;rounded=0;orthogonalLoop=1;jettySize=auto;html=1;entryX=1.2;entryY=0.307;entryDx=0;entryDy=0;entryPerimeter=0;" edge="1" parent="1" source="Y-yH2sZbLb9cI7O1GI6r-27" target="Y-yH2sZbLb9cI7O1GI6r-23">
          <mxGeometry relative="1" as="geometry">
            <Array as="points">
              <mxPoint x="580" y="513" />
              <mxPoint x="580" y="513" />
            </Array>
          </mxGeometry>
        </mxCell>
        <mxCell id="Y-yH2sZbLb9cI7O1GI6r-36" value="行情数据" style="text;html=1;align=center;verticalAlign=middle;resizable=0;points=[];labelBackgroundColor=#ffffff;" vertex="1" connectable="0" parent="Y-yH2sZbLb9cI7O1GI6r-35">
          <mxGeometry x="0.1232" y="1" relative="1" as="geometry">
            <mxPoint as="offset" />
          </mxGeometry>
        </mxCell>
        <mxCell id="Y-yH2sZbLb9cI7O1GI6r-37" value="init" style="html=1;verticalAlign=bottom;endArrow=block;labelBackgroundColor=none;fontFamily=Verdana;fontSize=12;elbow=vertical;edgeStyle=orthogonalEdgeStyle;curved=1;entryX=1;entryY=0.286;entryPerimeter=0;exitX=1.038;exitY=0.345;exitPerimeter=0;" edge="1" parent="1">
          <mxGeometry relative="1" as="geometry">
            <mxPoint x="160.0000000000001" y="529.9999999999999" as="sourcePoint" />
            <mxPoint x="164.62" y="567.92" as="targetPoint" />
            <Array as="points">
              <mxPoint x="214.62" y="529.9" />
              <mxPoint x="214.62" y="567.9" />
            </Array>
          </mxGeometry>
        </mxCell>
        <mxCell id="Y-yH2sZbLb9cI7O1GI6r-38" style="edgeStyle=orthogonalEdgeStyle;rounded=0;orthogonalLoop=1;jettySize=auto;html=1;entryX=0;entryY=0.079;entryDx=0;entryDy=0;entryPerimeter=0;exitX=1.4;exitY=0.029;exitDx=0;exitDy=0;exitPerimeter=0;" edge="1" parent="1">
          <mxGeometry relative="1" as="geometry">
            <mxPoint x="160" y="573" as="sourcePoint" />
            <mxPoint x="726" y="570" as="targetPoint" />
            <Array as="points">
              <mxPoint x="441" y="572.94" />
              <mxPoint x="441" y="569.94" />
            </Array>
          </mxGeometry>
        </mxCell>
        <mxCell id="Y-yH2sZbLb9cI7O1GI6r-39" value="请求tick数据" style="text;html=1;align=center;verticalAlign=middle;resizable=0;points=[];labelBackgroundColor=#ffffff;" vertex="1" connectable="0" parent="Y-yH2sZbLb9cI7O1GI6r-38">
          <mxGeometry x="-0.0896" relative="1" as="geometry">
            <mxPoint as="offset" />
          </mxGeometry>
        </mxCell>
        <mxCell id="Y-yH2sZbLb9cI7O1GI6r-40" style="edgeStyle=orthogonalEdgeStyle;rounded=0;orthogonalLoop=1;jettySize=auto;html=1;entryX=1.2;entryY=0.307;entryDx=0;entryDy=0;entryPerimeter=0;" edge="1" parent="1">
          <mxGeometry relative="1" as="geometry">
            <mxPoint x="728" y="600.02" as="sourcePoint" />
            <mxPoint x="160" y="600" as="targetPoint" />
            <Array as="points">
              <mxPoint x="583" y="600.02" />
              <mxPoint x="583" y="600.02" />
            </Array>
          </mxGeometry>
        </mxCell>
        <mxCell id="Y-yH2sZbLb9cI7O1GI6r-41" value="tick数据" style="text;html=1;align=center;verticalAlign=middle;resizable=0;points=[];labelBackgroundColor=#ffffff;" vertex="1" connectable="0" parent="Y-yH2sZbLb9cI7O1GI6r-40">
          <mxGeometry x="0.1232" y="1" relative="1" as="geometry">
            <mxPoint as="offset" />
          </mxGeometry>
        </mxCell>
        <mxCell id="Y-yH2sZbLb9cI7O1GI6r-43" value="本地回测完成" style="html=1;verticalAlign=bottom;endArrow=block;labelBackgroundColor=none;fontFamily=Verdana;fontSize=12;elbow=vertical;edgeStyle=orthogonalEdgeStyle;curved=1;entryX=1;entryY=0.286;entryPerimeter=0;exitX=1.038;exitY=0.345;exitPerimeter=0;" edge="1" parent="1">
          <mxGeometry relative="1" as="geometry">
            <mxPoint x="160" y="610" as="sourcePoint" />
            <mxPoint x="164.6199999999999" y="647.9200000000001" as="targetPoint" />
            <Array as="points">
              <mxPoint x="214.62" y="609.9" />
              <mxPoint x="214.62" y="647.9" />
            </Array>
          </mxGeometry>
        </mxCell>
        <mxCell id="Y-yH2sZbLb9cI7O1GI6r-47" style="edgeStyle=orthogonalEdgeStyle;rounded=0;orthogonalLoop=1;jettySize=auto;html=1;entryX=-0.1;entryY=0.12;entryDx=0;entryDy=0;entryPerimeter=0;" edge="1" parent="1" source="Y-yH2sZbLb9cI7O1GI6r-45" target="Y-yH2sZbLb9cI7O1GI6r-46">
          <mxGeometry relative="1" as="geometry">
            <Array as="points">
              <mxPoint x="190" y="702" />
              <mxPoint x="190" y="702" />
            </Array>
          </mxGeometry>
        </mxCell>
        <mxCell id="Y-yH2sZbLb9cI7O1GI6r-48" value="上传策略文件" style="text;html=1;align=center;verticalAlign=middle;resizable=0;points=[];labelBackgroundColor=#ffffff;" vertex="1" connectable="0" parent="Y-yH2sZbLb9cI7O1GI6r-47">
          <mxGeometry x="-0.1473" y="-4" relative="1" as="geometry">
            <mxPoint as="offset" />
          </mxGeometry>
        </mxCell>
        <mxCell id="Y-yH2sZbLb9cI7O1GI6r-51" style="edgeStyle=orthogonalEdgeStyle;rounded=0;orthogonalLoop=1;jettySize=auto;html=1;entryX=-0.2;entryY=0.126;entryDx=0;entryDy=0;entryPerimeter=0;" edge="1" parent="1" source="Y-yH2sZbLb9cI7O1GI6r-46" target="Y-yH2sZbLb9cI7O1GI6r-49">
          <mxGeometry relative="1" as="geometry">
            <Array as="points">
              <mxPoint x="390" y="712" />
              <mxPoint x="390" y="712" />
            </Array>
          </mxGeometry>
        </mxCell>
        <mxCell id="Y-yH2sZbLb9cI7O1GI6r-52" value="传输文件" style="text;html=1;align=center;verticalAlign=middle;resizable=0;points=[];labelBackgroundColor=#ffffff;" vertex="1" connectable="0" parent="Y-yH2sZbLb9cI7O1GI6r-51">
          <mxGeometry x="0.2838" y="26" relative="1" as="geometry">
            <mxPoint x="-26" y="24" as="offset" />
          </mxGeometry>
        </mxCell>
        <mxCell id="Y-yH2sZbLb9cI7O1GI6r-55" style="edgeStyle=orthogonalEdgeStyle;rounded=0;orthogonalLoop=1;jettySize=auto;html=1;entryX=-0.2;entryY=0.4;entryDx=0;entryDy=0;entryPerimeter=0;" edge="1" parent="1" source="Y-yH2sZbLb9cI7O1GI6r-49" target="Y-yH2sZbLb9cI7O1GI6r-54">
          <mxGeometry relative="1" as="geometry">
            <Array as="points">
              <mxPoint x="490" y="720" />
              <mxPoint x="490" y="720" />
            </Array>
          </mxGeometry>
        </mxCell>
        <mxCell id="Y-yH2sZbLb9cI7O1GI6r-56" value="提交master分支" style="text;html=1;align=center;verticalAlign=middle;resizable=0;points=[];labelBackgroundColor=#ffffff;" vertex="1" connectable="0" parent="Y-yH2sZbLb9cI7O1GI6r-55">
          <mxGeometry x="0.0156" y="-3" relative="1" as="geometry">
            <mxPoint as="offset" />
          </mxGeometry>
        </mxCell>
        <mxCell id="Y-yH2sZbLb9cI7O1GI6r-57" style="edgeStyle=orthogonalEdgeStyle;rounded=0;orthogonalLoop=1;jettySize=auto;html=1;entryX=0.5;entryY=0.442;entryDx=0;entryDy=0;entryPerimeter=0;" edge="1" parent="1" source="Y-yH2sZbLb9cI7O1GI6r-49" target="Y-yH2sZbLb9cI7O1GI6r-46">
          <mxGeometry relative="1" as="geometry">
            <Array as="points">
              <mxPoint x="410" y="747" />
              <mxPoint x="410" y="747" />
            </Array>
          </mxGeometry>
        </mxCell>
        <mxCell id="Y-yH2sZbLb9cI7O1GI6r-58" value="上传成功" style="text;html=1;align=center;verticalAlign=middle;resizable=0;points=[];labelBackgroundColor=#ffffff;" vertex="1" connectable="0" parent="Y-yH2sZbLb9cI7O1GI6r-57">
          <mxGeometry x="0.078" relative="1" as="geometry">
            <mxPoint x="1" as="offset" />
          </mxGeometry>
        </mxCell>
        <mxCell id="Y-yH2sZbLb9cI7O1GI6r-59" value="标记为已变更" style="html=1;verticalAlign=bottom;endArrow=block;labelBackgroundColor=none;fontFamily=Verdana;fontSize=12;elbow=vertical;edgeStyle=orthogonalEdgeStyle;curved=1;entryX=1;entryY=0.286;entryPerimeter=0;exitX=1.038;exitY=0.345;exitPerimeter=0;" edge="1" parent="1">
          <mxGeometry x="0.2984" y="-17" relative="1" as="geometry">
            <mxPoint x="300" y="760" as="sourcePoint" />
            <mxPoint x="304.6199999999999" y="797.9200000000001" as="targetPoint" />
            <Array as="points">
              <mxPoint x="354.62" y="759.9" />
              <mxPoint x="354.62" y="797.9" />
            </Array>
            <mxPoint x="32" y="-7" as="offset" />
          </mxGeometry>
        </mxCell>
        <mxCell id="Y-yH2sZbLb9cI7O1GI6r-60" style="edgeStyle=orthogonalEdgeStyle;rounded=0;orthogonalLoop=1;jettySize=auto;html=1;entryX=1.3;entryY=0.8;entryDx=0;entryDy=0;entryPerimeter=0;" edge="1" parent="1" source="Y-yH2sZbLb9cI7O1GI6r-46" target="Y-yH2sZbLb9cI7O1GI6r-45">
          <mxGeometry relative="1" as="geometry">
            <Array as="points">
              <mxPoint x="240" y="818" />
              <mxPoint x="240" y="818" />
            </Array>
          </mxGeometry>
        </mxCell>
        <mxCell id="Y-yH2sZbLb9cI7O1GI6r-61" value="上传完成" style="text;html=1;align=center;verticalAlign=middle;resizable=0;points=[];labelBackgroundColor=#ffffff;" vertex="1" connectable="0" parent="Y-yH2sZbLb9cI7O1GI6r-60">
          <mxGeometry x="0.1181" y="-3" relative="1" as="geometry">
            <mxPoint as="offset" />
          </mxGeometry>
        </mxCell>
        <mxCell id="Y-yH2sZbLb9cI7O1GI6r-62" value="上传" style="text;html=1;strokeColor=none;fillColor=none;align=center;verticalAlign=middle;whiteSpace=wrap;rounded=0;" vertex="1" parent="1">
          <mxGeometry x="50" y="750" width="60" height="20" as="geometry" />
        </mxCell>
        <mxCell id="Y-yH2sZbLb9cI7O1GI6r-66" style="edgeStyle=orthogonalEdgeStyle;rounded=0;orthogonalLoop=1;jettySize=auto;html=1;entryX=-0.2;entryY=0.077;entryDx=0;entryDy=0;entryPerimeter=0;" edge="1" parent="1" source="Y-yH2sZbLb9cI7O1GI6r-63" target="Y-yH2sZbLb9cI7O1GI6r-64">
          <mxGeometry relative="1" as="geometry">
            <Array as="points">
              <mxPoint x="190" y="890" />
              <mxPoint x="190" y="890" />
            </Array>
          </mxGeometry>
        </mxCell>
        <mxCell id="Y-yH2sZbLb9cI7O1GI6r-67" value="申请发布" style="text;html=1;align=center;verticalAlign=middle;resizable=0;points=[];labelBackgroundColor=#ffffff;" vertex="1" connectable="0" parent="Y-yH2sZbLb9cI7O1GI6r-66">
          <mxGeometry x="-0.0781" y="2" relative="1" as="geometry">
            <mxPoint as="offset" />
          </mxGeometry>
        </mxCell>
        <mxCell id="Y-yH2sZbLb9cI7O1GI6r-68" value="申请发布" style="text;html=1;strokeColor=none;fillColor=none;align=center;verticalAlign=middle;whiteSpace=wrap;rounded=0;" vertex="1" parent="1">
          <mxGeometry x="50" y="910" width="60" height="20" as="geometry" />
        </mxCell>
        <mxCell id="Y-yH2sZbLb9cI7O1GI6r-69" value="标记版本为待复核" style="html=1;verticalAlign=bottom;endArrow=block;labelBackgroundColor=none;fontFamily=Verdana;fontSize=12;elbow=vertical;edgeStyle=orthogonalEdgeStyle;curved=1;entryX=1;entryY=0.286;entryPerimeter=0;exitX=1.038;exitY=0.345;exitPerimeter=0;" edge="1" parent="1">
          <mxGeometry x="0.2984" y="-17" relative="1" as="geometry">
            <mxPoint x="300" y="910" as="sourcePoint" />
            <mxPoint x="304.6199999999999" y="947.9200000000001" as="targetPoint" />
            <Array as="points">
              <mxPoint x="354.62" y="909.9" />
              <mxPoint x="354.62" y="947.9" />
            </Array>
            <mxPoint x="32" y="-7" as="offset" />
          </mxGeometry>
        </mxCell>
        <mxCell id="Y-yH2sZbLb9cI7O1GI6r-70" value="待复核" style="edgeStyle=orthogonalEdgeStyle;rounded=0;orthogonalLoop=1;jettySize=auto;html=1;entryX=0.9;entryY=0.71;entryDx=0;entryDy=0;entryPerimeter=0;" edge="1" parent="1" source="Y-yH2sZbLb9cI7O1GI6r-64" target="Y-yH2sZbLb9cI7O1GI6r-63">
          <mxGeometry relative="1" as="geometry">
            <Array as="points">
              <mxPoint x="159" y="950" />
              <mxPoint x="159" y="951" />
            </Array>
          </mxGeometry>
        </mxCell>
        <mxCell id="Y-yH2sZbLb9cI7O1GI6r-72" value="复核（复核员）" style="text;html=1;strokeColor=none;fillColor=none;align=center;verticalAlign=middle;whiteSpace=wrap;rounded=0;" vertex="1" parent="1">
          <mxGeometry x="50" y="1050" width="60" height="20" as="geometry" />
        </mxCell>
        <mxCell id="Y-yH2sZbLb9cI7O1GI6r-74" style="edgeStyle=orthogonalEdgeStyle;rounded=0;orthogonalLoop=1;jettySize=auto;html=1;entryX=0.1;entryY=0.114;entryDx=0;entryDy=0;entryPerimeter=0;" edge="1" parent="1" source="Y-yH2sZbLb9cI7O1GI6r-71" target="Y-yH2sZbLb9cI7O1GI6r-73">
          <mxGeometry relative="1" as="geometry">
            <Array as="points">
              <mxPoint x="286" y="1018" />
            </Array>
          </mxGeometry>
        </mxCell>
        <mxCell id="Y-yH2sZbLb9cI7O1GI6r-75" value="复核" style="text;html=1;align=center;verticalAlign=middle;resizable=0;points=[];labelBackgroundColor=#ffffff;" vertex="1" connectable="0" parent="Y-yH2sZbLb9cI7O1GI6r-74">
          <mxGeometry x="-0.1145" y="1" relative="1" as="geometry">
            <mxPoint as="offset" />
          </mxGeometry>
        </mxCell>
        <mxCell id="Y-yH2sZbLb9cI7O1GI6r-77" value="标记版本为可发布" style="html=1;verticalAlign=bottom;endArrow=block;labelBackgroundColor=none;fontFamily=Verdana;fontSize=12;elbow=vertical;edgeStyle=orthogonalEdgeStyle;curved=1;entryX=1;entryY=0.286;entryPerimeter=0;exitX=1.038;exitY=0.345;exitPerimeter=0;" edge="1" parent="1">
          <mxGeometry x="0.2984" y="-17" relative="1" as="geometry">
            <mxPoint x="290" y="1030" as="sourcePoint" />
            <mxPoint x="294.6199999999999" y="1067.92" as="targetPoint" />
            <Array as="points">
              <mxPoint x="344.62" y="1029.9" />
              <mxPoint x="344.62" y="1067.9" />
            </Array>
            <mxPoint x="32" y="-7" as="offset" />
          </mxGeometry>
        </mxCell>
        <mxCell id="Y-yH2sZbLb9cI7O1GI6r-78" value="复核通过" style="edgeStyle=orthogonalEdgeStyle;rounded=0;orthogonalLoop=1;jettySize=auto;html=1;entryX=1.2;entryY=0.71;entryDx=0;entryDy=0;entryPerimeter=0;" edge="1" parent="1" source="Y-yH2sZbLb9cI7O1GI6r-73" target="Y-yH2sZbLb9cI7O1GI6r-71">
          <mxGeometry relative="1" as="geometry">
            <Array as="points">
              <mxPoint x="260" y="1081" />
              <mxPoint x="260" y="1081" />
            </Array>
          </mxGeometry>
        </mxCell>
        <mxCell id="Y-yH2sZbLb9cI7O1GI6r-80" value="标记新版本" style="edgeStyle=orthogonalEdgeStyle;rounded=0;orthogonalLoop=1;jettySize=auto;html=1;entryX=0.5;entryY=0.167;entryDx=0;entryDy=0;entryPerimeter=0;" edge="1" parent="1" source="Y-yH2sZbLb9cI7O1GI6r-64" target="Y-yH2sZbLb9cI7O1GI6r-79">
          <mxGeometry relative="1" as="geometry">
            <Array as="points">
              <mxPoint x="330" y="900" />
              <mxPoint x="330" y="900" />
            </Array>
          </mxGeometry>
        </mxCell>
        <mxCell id="Y-yH2sZbLb9cI7O1GI6r-82" style="edgeStyle=orthogonalEdgeStyle;rounded=0;orthogonalLoop=1;jettySize=auto;html=1;entryX=0;entryY=0.25;entryDx=0;entryDy=0;entryPerimeter=0;" edge="1" parent="1" source="Y-yH2sZbLb9cI7O1GI6r-79" target="Y-yH2sZbLb9cI7O1GI6r-81">
          <mxGeometry relative="1" as="geometry">
            <Array as="points">
              <mxPoint x="490" y="905" />
              <mxPoint x="490" y="905" />
            </Array>
          </mxGeometry>
        </mxCell>
        <mxCell id="Y-yH2sZbLb9cI7O1GI6r-83" value="git tag 标记版本" style="text;html=1;align=center;verticalAlign=middle;resizable=0;points=[];labelBackgroundColor=#ffffff;" vertex="1" connectable="0" parent="Y-yH2sZbLb9cI7O1GI6r-82">
          <mxGeometry x="-0.1538" y="3" relative="1" as="geometry">
            <mxPoint as="offset" />
          </mxGeometry>
        </mxCell>
        <mxCell id="Y-yH2sZbLb9cI7O1GI6r-86" value="发布" style="text;html=1;strokeColor=none;fillColor=none;align=center;verticalAlign=middle;whiteSpace=wrap;rounded=0;" vertex="1" parent="1">
          <mxGeometry x="50" y="1190" width="60" height="20" as="geometry" />
        </mxCell>
        <mxCell id="Y-yH2sZbLb9cI7O1GI6r-89" style="edgeStyle=orthogonalEdgeStyle;rounded=0;orthogonalLoop=1;jettySize=auto;html=1;entryX=-0.4;entryY=0.1;entryDx=0;entryDy=0;entryPerimeter=0;" edge="1" parent="1" source="Y-yH2sZbLb9cI7O1GI6r-84" target="Y-yH2sZbLb9cI7O1GI6r-85">
          <mxGeometry relative="1" as="geometry">
            <Array as="points">
              <mxPoint x="190" y="1148" />
              <mxPoint x="190" y="1148" />
            </Array>
          </mxGeometry>
        </mxCell>
        <mxCell id="Y-yH2sZbLb9cI7O1GI6r-91" value="发布(策略id，版本号)" style="text;html=1;align=center;verticalAlign=middle;resizable=0;points=[];labelBackgroundColor=#ffffff;" vertex="1" connectable="0" parent="Y-yH2sZbLb9cI7O1GI6r-89">
          <mxGeometry x="-0.0476" y="1" relative="1" as="geometry">
            <mxPoint x="5" y="-17" as="offset" />
          </mxGeometry>
        </mxCell>
        <mxCell id="Y-yH2sZbLb9cI7O1GI6r-93" style="edgeStyle=orthogonalEdgeStyle;rounded=0;orthogonalLoop=1;jettySize=auto;html=1;entryX=-0.1;entryY=0.125;entryDx=0;entryDy=0;entryPerimeter=0;" edge="1" parent="1" source="Y-yH2sZbLb9cI7O1GI6r-85" target="Y-yH2sZbLb9cI7O1GI6r-92">
          <mxGeometry relative="1" as="geometry">
            <Array as="points">
              <mxPoint x="340" y="1160" />
              <mxPoint x="340" y="1160" />
            </Array>
          </mxGeometry>
        </mxCell>
        <mxCell id="Y-yH2sZbLb9cI7O1GI6r-94" value="加密策略并获取" style="text;html=1;align=center;verticalAlign=middle;resizable=0;points=[];labelBackgroundColor=#ffffff;" vertex="1" connectable="0" parent="Y-yH2sZbLb9cI7O1GI6r-93">
          <mxGeometry x="-0.1544" y="1" relative="1" as="geometry">
            <mxPoint x="12" y="-19" as="offset" />
          </mxGeometry>
        </mxCell>
        <mxCell id="Y-yH2sZbLb9cI7O1GI6r-96" value="文件" style="edgeStyle=orthogonalEdgeStyle;rounded=0;orthogonalLoop=1;jettySize=auto;html=1;entryX=1;entryY=0.292;entryDx=0;entryDy=0;entryPerimeter=0;" edge="1" parent="1" source="Y-yH2sZbLb9cI7O1GI6r-92" target="Y-yH2sZbLb9cI7O1GI6r-85">
          <mxGeometry relative="1" as="geometry">
            <Array as="points">
              <mxPoint x="294" y="1180" />
            </Array>
          </mxGeometry>
        </mxCell>
        <mxCell id="Y-yH2sZbLb9cI7O1GI6r-98" style="edgeStyle=orthogonalEdgeStyle;rounded=0;orthogonalLoop=1;jettySize=auto;html=1;entryX=-0.3;entryY=0.3;entryDx=0;entryDy=0;entryPerimeter=0;" edge="1" parent="1" source="Y-yH2sZbLb9cI7O1GI6r-92" target="Y-yH2sZbLb9cI7O1GI6r-97">
          <mxGeometry relative="1" as="geometry">
            <Array as="points">
              <mxPoint x="520" y="1170" />
              <mxPoint x="520" y="1168" />
            </Array>
          </mxGeometry>
        </mxCell>
        <mxCell id="Y-yH2sZbLb9cI7O1GI6r-99" value="git checkout版本，加密" style="text;html=1;align=center;verticalAlign=middle;resizable=0;points=[];labelBackgroundColor=#ffffff;" vertex="1" connectable="0" parent="Y-yH2sZbLb9cI7O1GI6r-98">
          <mxGeometry x="-0.1938" y="-1" relative="1" as="geometry">
            <mxPoint x="13" y="-31" as="offset" />
          </mxGeometry>
        </mxCell>
        <mxCell id="Y-yH2sZbLb9cI7O1GI6r-100" value="文件" style="edgeStyle=orthogonalEdgeStyle;rounded=0;orthogonalLoop=1;jettySize=auto;html=1;entryX=1.2;entryY=0.633;entryDx=0;entryDy=0;entryPerimeter=0;" edge="1" parent="1" source="Y-yH2sZbLb9cI7O1GI6r-97" target="Y-yH2sZbLb9cI7O1GI6r-92">
          <mxGeometry relative="1" as="geometry">
            <Array as="points">
              <mxPoint x="550" y="1188" />
              <mxPoint x="550" y="1188" />
            </Array>
          </mxGeometry>
        </mxCell>
        <mxCell id="Y-yH2sZbLb9cI7O1GI6r-101" value="发布到分布服务" style="html=1;verticalAlign=bottom;endArrow=block;labelBackgroundColor=none;fontFamily=Verdana;fontSize=12;elbow=vertical;edgeStyle=orthogonalEdgeStyle;curved=1;entryX=1;entryY=0.286;entryPerimeter=0;exitX=1.038;exitY=0.345;exitPerimeter=0;" edge="1" parent="1">
          <mxGeometry x="0.2984" y="-17" relative="1" as="geometry">
            <mxPoint x="300" y="1200" as="sourcePoint" />
            <mxPoint x="304.6199999999999" y="1237.92" as="targetPoint" />
            <Array as="points">
              <mxPoint x="354.62" y="1199.9" />
              <mxPoint x="354.62" y="1237.9" />
            </Array>
            <mxPoint x="32" y="-7" as="offset" />
          </mxGeometry>
        </mxCell>
        <mxCell id="Y-yH2sZbLb9cI7O1GI6r-102" value="标记为已发布" style="html=1;verticalAlign=bottom;endArrow=block;labelBackgroundColor=none;fontFamily=Verdana;fontSize=12;elbow=vertical;edgeStyle=orthogonalEdgeStyle;curved=1;entryX=1;entryY=0.286;entryPerimeter=0;exitX=1.038;exitY=0.345;exitPerimeter=0;" edge="1" parent="1">
          <mxGeometry x="0.2984" y="-17" relative="1" as="geometry">
            <mxPoint x="300" y="1252.08" as="sourcePoint" />
            <mxPoint x="304.6199999999999" y="1290" as="targetPoint" />
            <Array as="points">
              <mxPoint x="354.62" y="1251.98" />
              <mxPoint x="354.62" y="1289.98" />
            </Array>
            <mxPoint x="32" y="-7" as="offset" />
          </mxGeometry>
        </mxCell>
        <mxCell id="Y-yH2sZbLb9cI7O1GI6r-103" style="edgeStyle=orthogonalEdgeStyle;rounded=0;orthogonalLoop=1;jettySize=auto;html=1;entryX=1.1;entryY=0.956;entryDx=0;entryDy=0;entryPerimeter=0;" edge="1" parent="1" source="Y-yH2sZbLb9cI7O1GI6r-85" target="Y-yH2sZbLb9cI7O1GI6r-84">
          <mxGeometry relative="1" as="geometry">
            <Array as="points">
              <mxPoint x="290" y="1312" />
            </Array>
          </mxGeometry>
        </mxCell>
        <mxCell id="Y-yH2sZbLb9cI7O1GI6r-104" value="发布完成" style="text;html=1;align=center;verticalAlign=middle;resizable=0;points=[];labelBackgroundColor=#ffffff;" vertex="1" connectable="0" parent="Y-yH2sZbLb9cI7O1GI6r-103">
          <mxGeometry x="0.0889" y="-4" relative="1" as="geometry">
            <mxPoint as="offset" />
          </mxGeometry>
        </mxCell>
      </root>
    </mxGraphModel>
  </diagram>
</mxfile>
